<?xml version="1.0" encoding="UTF-8" standalone="no"?>
<!-- Created with Inkscape (http://www.inkscape.org/) -->

<svg
   xmlns:dc="http://purl.org/dc/elements/1.1/"
   xmlns:cc="http://creativecommons.org/ns#"
   xmlns:rdf="http://www.w3.org/1999/02/22-rdf-syntax-ns#"
   xmlns:svg="http://www.w3.org/2000/svg"
   xmlns="http://www.w3.org/2000/svg"
   xmlns:sodipodi="http://sodipodi.sourceforge.net/DTD/sodipodi-0.dtd"
   xmlns:inkscape="http://www.inkscape.org/namespaces/inkscape"
   id="svg3039"
   version="1.1"
   inkscape:version="0.48.4 r9939"
   width="251"
   height="211"
   sodipodi:docname="LOGO_BLOG.svg">
  <metadata
     id="metadata3045">
    <rdf:RDF>
      <cc:Work
         rdf:about="">
        <dc:format>image/svg+xml</dc:format>
        <dc:type
           rdf:resource="http://purl.org/dc/dcmitype/StillImage" />
        <dc:title></dc:title>
      </cc:Work>
    </rdf:RDF>
  </metadata>
  <defs
     id="defs3043" />
  <sodipodi:namedview
     pagecolor="#ffffff"
     bordercolor="#666666"
     borderopacity="1"
     objecttolerance="10"
     gridtolerance="10"
     guidetolerance="10"
     inkscape:pageopacity="0"
     inkscape:pageshadow="2"
     inkscape:window-width="1600"
     inkscape:window-height="830"
     id="namedview3041"
     showgrid="false"
     inkscape:zoom="2.8284271"
     inkscape:cx="190.94708"
     inkscape:cy="109.60746"
     inkscape:window-x="-3"
     inkscape:window-y="-3"
     inkscape:window-maximized="1"
     inkscape:current-layer="svg3039" />
  <path
     sodipodi:nodetypes="ssscccccccccccsssscssccccccssscsssssssccssssssssssscccsssscccsscssscccccsssss"
     inkscape:connector-curvature="0"
     id="path3101"
     d="m 20.873325,207.70486 c -0.520605,-2.07426 0.687733,-5.24939 5.571575,-14.64033 5.66971,-10.90208 6.02367,-11.93127 3.89572,-11.32726 -5.50776,1.56337 -17.960809,3.77205 -26.1247596,-2.32795 -8.1639505,-6.10001 -2.1524265,-21.30474 11.9632096,-28.787 15.162507,-6.75628 21.798155,-6.72092 37.255837,-5.56557 14.191954,-27.09007 14.386942,-26.70792 26.923773,-49.090697 20.6487,-36.8625 23.35838,-41.931821 25.09693,-45.377657 3.55943,-6.310653 9.86779,-12.566097 16.77774,-10.155815 1.6021,0.605592 2.04668,1.34968 1.57294,2.632587 C 112.78972,61.389901 100.91704,81.015171 92.74061,94.61954 81.5,113.33054 80.24124,115.42876 73.45312,126.26794 66.665,137.10713 62.13863,146.33875 62.60144,146.7062 c 5.842381,2.55342 10.383865,4.28302 16.68851,6.78748 l 5.31476,-2.69319 c 11.70851,-5.93315 35.1395,-21.63608 50.89529,-34.10889 3.025,-2.39469 5.95,-4.70649 6.5,-5.13733 0.55,-0.43085 4.37541,-3.68976 8.50091,-7.24204 4.1255,-3.55227 11.3255,-9.688913 24.11737,-22.089363 12.79187,-12.40045 22.99372,-23.997024 26.55226,-28.369314 11.24201,-13.812791 19.99389,-31.168744 20.72957,-41.109046 0.23979,-3.2400246 0.47287,-5.9590045 0.51794,-6.0421777 9.30192,-6.53486219 28.44319,-9.6970213 27.94269,3.0687161 -0.14577,2.7465256 -1.05517,7.3887176 -2.02088,10.3159836 -3.04402,11.016379 -11.40206,20.132307 -17.30935,27.766524 -6.89627,8.931989 -27.1945,29.865317 -45.36977,44.982658 -18.17527,15.117339 -20.15931,16.804839 -44.89536,34.363409 -24.73604,17.55857 -28.22354,19.6541 -30.19,20.87654 -1.96646,1.22243 -5.15038,3.07529 -7.07538,4.11746 -1.925,1.04216 -5.89979,3.24462 -8.83288,4.89435 l -5.33288,2.9995 6.33288,3.10817 c 3.48309,1.70949 7.00788,3.53063 7.83288,4.04698 2.19541,1.37405 11.80783,5.57631 17,7.43188 4.28019,1.52965 10.7319,2.20632 14.017,1.47013 2.63964,-0.59154 8.43377,-4.59702 9.74147,-6.73428 1.71761,-2.80718 4.07048,-2.5865 4.83343,0.45334 0.69559,2.77143 -1.18223,5.66909 -8.74205,13.48986 -4.72415,4.88722 -13.77951,17.54369 -42.220812,10.21934 -28.441305,-7.32436 -32.674855,-19.3934 -42.775075,-20.59351 -10.10022,-1.2001 -13.936653,10.16306 -18.315493,18.42658 -4.37884,8.26351 -8.78387,15.90724 -9.78895,16.98608 -2.63972,2.8334 -5.571899,2.51739 -6.376195,-0.68718 z M 32.32861,172.40459 c 6.9192,-2.06062 10.13159,-4.68839 8.65406,-7.07908 -1.46379,-2.36847 -9.08034,-4.97196 -14.5455,-4.97196 -8.08472,0 -11.323513,0.84204 -14.979985,3.8946 -3.4874501,2.91145 -4.2391691,6.85578 -1.8542561,9.72942 1.7911961,2.15826 12.7420011,1.40029 22.7256811,-1.57298 z m 180.15323,36.40356 c -6.41201,-2.68987 -10.05218,-18.19666 -11.20453,-23.52579 -0.85404,-3.94967 -0.23286,-13.20562 1.74727,-13.48883 6.37378,5.31457 8.9656,26.02272 16.15278,24.53083 9.52466,-2.56183 12.97223,-17.038 11.68964,-28.00662 l -8.19408,-2.1127 c -10.91935,-2.81537 -17.75373,-10.67378 -10.96977,-23.71523 7.54307,-14.50078 20.45482,-25.34023 27.63106,-22.02101 2.65141,1.22636 4.16049,1.14296 4.53921,-0.25088 0.31204,-1.14839 1.94914,-2.08798 3.63798,-2.08798 5.90616,2.96287 2.55892,7.29132 1.52609,14.06595 -1.59694,12.07861 -9.02182,47.31891 -11.06868,56.63596 -3.34664,15.86227 -14.48447,24.59192 -25.48697,19.9763 z m 27.03637,-71.10736 c 0.35578,-3.33989 -0.0856,-3.73798 -2.57682,-7.34972 -5.58704,-0.11884 -11.55339,9.43001 -13.33934,13.59358 -3.34016,7.7869 0.16392,18.40475 8.54476,10.36259 1.33663,-1.28261 6.37897,-7.28989 7.3714,-16.60645 z m -83.14399,26.57135 c -1.94262,-18.78714 19.19333,-44.9938 31.57449,-45.90291 7.93276,-0.11377 13.03498,-0.21515 16.59271,14.21728 4.5391,26.71784 -5.28396,46.22764 -31.04364,48.90531 -11.63279,1.85144 -16.23132,-8.04594 -17.12356,-17.21968 z m 24.9415,3.43638 c 5.72299,-2.80765 12.5681,-15.9253 13.02336,-25.25167 0.27012,-5.53367 -4.13601,-12.35438 -5.38815,-12.35438 -2.85398,0 -11.7814,10.14468 -16.43481,19.8253 -5.75663,11.97571 -0.0529,22.1237 8.7996,17.78075 z"
     style="fill:#000000" />
</svg>
